<svg width="23" height="23" viewBox="0 0 23 23" fill="none" xmlns="http://www.w3.org/2000/svg">
<rect width="23" height="23" fill="#FFCB44"/>
<mask id="path-1-outside-1_1_3" maskUnits="userSpaceOnUse" x="3" y="4" width="16" height="18" fill="black">
<rect fill="white" x="3" y="4" width="16" height="18"/>
<path d="M4.798 5.757H17.262L11.03 19.266L4.798 5.757ZM11.03 17.594L16.179 6.46H5.9L11.03 17.594Z"/>
</mask>
<path d="M4.798 5.757H17.262L11.03 19.266L4.798 5.757ZM11.03 17.594L16.179 6.46H5.9L11.03 17.594Z" fill="black"/>
<path d="M4.798 5.757V4.957H3.54792L4.07157 6.09212L4.798 5.757ZM17.262 5.757L17.9884 6.09212L18.5121 4.957H17.262V5.757ZM11.03 19.266L10.3036 19.6011L11.03 21.1758L11.7564 19.6011L11.03 19.266ZM11.03 17.594L10.3034 17.9288L11.0287 19.5028L11.7561 17.9298L11.03 17.594ZM16.179 6.46L16.9051 6.7958L17.4304 5.66H16.179V6.46ZM5.9 6.46V5.66H4.65057L5.17341 6.79477L5.9 6.46ZM4.798 6.557H17.262V4.957H4.798V6.557ZM16.5356 5.42188L10.3036 18.9309L11.7564 19.6011L17.9884 6.09212L16.5356 5.42188ZM11.7564 18.9309L5.52443 5.42188L4.07157 6.09212L10.3036 19.6011L11.7564 18.9309ZM11.7561 17.9298L16.9051 6.7958L15.4529 6.1242L10.3039 17.2582L11.7561 17.9298ZM16.179 5.66H5.9V7.26H16.179V5.66ZM5.17341 6.79477L10.3034 17.9288L11.7566 17.2592L6.62659 6.12522L5.17341 6.79477Z" fill="black" mask="url(#path-1-outside-1_1_3)"/>
</svg>
