<svg width="76" height="15" viewBox="0 0 76 15" fill="none" xmlns="http://www.w3.org/2000/svg">
<mask id="path-1-outside-1_1_2" maskUnits="userSpaceOnUse" x="0" y="0" width="77" height="15" fill="black">
<rect fill="white" width="77" height="15"/>
<path d="M0.798 0.756999H13.262L7.03 14.266L0.798 0.756999ZM7.03 12.594L12.179 1.46H1.9L7.03 12.594ZM19.2135 0.775999H19.9545L25.3885 14H24.6285L22.8425 9.63H16.3255L14.5205 14H13.7795L19.2135 0.775999ZM16.6105 8.946H22.5575L19.5745 1.688L16.6105 8.946ZM32.4039 7.673C31.3272 7.45767 30.4469 7.22333 29.7629 6.97C29.0916 6.704 28.5596 6.34933 28.1669 5.906C27.7869 5.45 27.5969 4.86733 27.5969 4.158C27.5969 3.42333 27.7869 2.77733 28.1669 2.22C28.5596 1.66267 29.1042 1.232 29.8009 0.928C30.5102 0.624 31.3272 0.472 32.2519 0.472C33.1386 0.472 33.9492 0.662 34.6839 1.042C35.4312 1.40933 36.0202 1.92867 36.4509 2.6C36.8816 3.27133 37.0969 4.03767 37.0969 4.899H36.3939C36.3939 4.15167 36.2102 3.493 35.8429 2.923C35.4756 2.353 34.9752 1.916 34.3419 1.612C33.7086 1.29533 33.0056 1.137 32.2329 1.137C31.5489 1.137 30.9092 1.24467 30.3139 1.46C29.7186 1.67533 29.2309 2.00467 28.8509 2.448C28.4836 2.89133 28.2999 3.44867 28.2999 4.12C28.2999 4.728 28.4772 5.21567 28.8319 5.583C29.1866 5.93767 29.6489 6.21 30.2189 6.4C30.7889 6.59 31.5869 6.79267 32.6129 7.008C33.6516 7.22333 34.4559 7.43233 35.0259 7.635C35.6086 7.825 36.0962 8.148 36.4889 8.604C36.8942 9.06 37.0969 9.69967 37.0969 10.523C37.0969 11.3463 36.8752 12.043 36.4319 12.613C36.0012 13.1703 35.4249 13.5883 34.7029 13.867C33.9809 14.1457 33.1956 14.285 32.3469 14.285C31.2956 14.285 30.3709 14.0887 29.5729 13.696C28.7749 13.3033 28.1606 12.7523 27.7299 12.043C27.3119 11.321 27.1029 10.4977 27.1029 9.573H27.8059C27.8059 10.3837 27.9832 11.093 28.3379 11.701C28.7052 12.309 29.2309 12.784 29.9149 13.126C30.5989 13.4553 31.4096 13.62 32.3469 13.62C33.5122 13.62 34.4749 13.3413 35.2349 12.784C36.0076 12.2267 36.3939 11.4667 36.3939 10.504C36.3939 9.84533 36.2292 9.33867 35.8999 8.984C35.5706 8.62933 35.1526 8.376 34.6459 8.224C34.1519 8.05933 33.4046 7.87567 32.4039 7.673ZM50.0024 0.775999V1.479H45.0054V14H44.3214V1.479H39.3244V0.775999H50.0024ZM60.0768 1.213C60.8368 1.56767 61.4321 2.09333 61.8628 2.79C62.3061 3.48667 62.5278 4.25933 62.5278 5.108C62.5278 6.096 62.2238 6.98267 61.6158 7.768C61.0205 8.54067 60.2541 9.05367 59.3168 9.307L62.6798 14H61.8438L58.5948 9.44L57.9868 9.459H53.2178V14H52.5148V0.775999H57.5498C58.1071 0.775999 58.5821 0.813999 58.9748 0.889999C59.3801 0.953332 59.7475 1.061 60.0768 1.213ZM58.1768 8.756C58.8355 8.756 59.4435 8.59133 60.0008 8.262C60.5581 7.93267 61.0015 7.48933 61.3308 6.932C61.6601 6.37467 61.8248 5.76667 61.8248 5.108C61.8248 4.37333 61.6285 3.70833 61.2358 3.113C60.8558 2.51767 60.3238 2.07433 59.6398 1.783C59.1458 1.58033 58.4491 1.479 57.5498 1.479H53.2178V8.756H58.1768ZM69.3913 0.775999H70.1323L75.5663 14H74.8063L73.0203 9.63H66.5033L64.6983 14H63.9573L69.3913 0.775999ZM66.7883 8.946H72.7353L69.7523 1.688L66.7883 8.946Z"/>
</mask>
<path d="M0.798 0.756999H13.262L7.03 14.266L0.798 0.756999ZM7.03 12.594L12.179 1.46H1.9L7.03 12.594ZM19.2135 0.775999H19.9545L25.3885 14H24.6285L22.8425 9.63H16.3255L14.5205 14H13.7795L19.2135 0.775999ZM16.6105 8.946H22.5575L19.5745 1.688L16.6105 8.946ZM32.4039 7.673C31.3272 7.45767 30.4469 7.22333 29.7629 6.97C29.0916 6.704 28.5596 6.34933 28.1669 5.906C27.7869 5.45 27.5969 4.86733 27.5969 4.158C27.5969 3.42333 27.7869 2.77733 28.1669 2.22C28.5596 1.66267 29.1042 1.232 29.8009 0.928C30.5102 0.624 31.3272 0.472 32.2519 0.472C33.1386 0.472 33.9492 0.662 34.6839 1.042C35.4312 1.40933 36.0202 1.92867 36.4509 2.6C36.8816 3.27133 37.0969 4.03767 37.0969 4.899H36.3939C36.3939 4.15167 36.2102 3.493 35.8429 2.923C35.4756 2.353 34.9752 1.916 34.3419 1.612C33.7086 1.29533 33.0056 1.137 32.2329 1.137C31.5489 1.137 30.9092 1.24467 30.3139 1.46C29.7186 1.67533 29.2309 2.00467 28.8509 2.448C28.4836 2.89133 28.2999 3.44867 28.2999 4.12C28.2999 4.728 28.4772 5.21567 28.8319 5.583C29.1866 5.93767 29.6489 6.21 30.2189 6.4C30.7889 6.59 31.5869 6.79267 32.6129 7.008C33.6516 7.22333 34.4559 7.43233 35.0259 7.635C35.6086 7.825 36.0962 8.148 36.4889 8.604C36.8942 9.06 37.0969 9.69967 37.0969 10.523C37.0969 11.3463 36.8752 12.043 36.4319 12.613C36.0012 13.1703 35.4249 13.5883 34.7029 13.867C33.9809 14.1457 33.1956 14.285 32.3469 14.285C31.2956 14.285 30.3709 14.0887 29.5729 13.696C28.7749 13.3033 28.1606 12.7523 27.7299 12.043C27.3119 11.321 27.1029 10.4977 27.1029 9.573H27.8059C27.8059 10.3837 27.9832 11.093 28.3379 11.701C28.7052 12.309 29.2309 12.784 29.9149 13.126C30.5989 13.4553 31.4096 13.62 32.3469 13.62C33.5122 13.62 34.4749 13.3413 35.2349 12.784C36.0076 12.2267 36.3939 11.4667 36.3939 10.504C36.3939 9.84533 36.2292 9.33867 35.8999 8.984C35.5706 8.62933 35.1526 8.376 34.6459 8.224C34.1519 8.05933 33.4046 7.87567 32.4039 7.673ZM50.0024 0.775999V1.479H45.0054V14H44.3214V1.479H39.3244V0.775999H50.0024ZM60.0768 1.213C60.8368 1.56767 61.4321 2.09333 61.8628 2.79C62.3061 3.48667 62.5278 4.25933 62.5278 5.108C62.5278 6.096 62.2238 6.98267 61.6158 7.768C61.0205 8.54067 60.2541 9.05367 59.3168 9.307L62.6798 14H61.8438L58.5948 9.44L57.9868 9.459H53.2178V14H52.5148V0.775999H57.5498C58.1071 0.775999 58.5821 0.813999 58.9748 0.889999C59.3801 0.953332 59.7475 1.061 60.0768 1.213ZM58.1768 8.756C58.8355 8.756 59.4435 8.59133 60.0008 8.262C60.5581 7.93267 61.0015 7.48933 61.3308 6.932C61.6601 6.37467 61.8248 5.76667 61.8248 5.108C61.8248 4.37333 61.6285 3.70833 61.2358 3.113C60.8558 2.51767 60.3238 2.07433 59.6398 1.783C59.1458 1.58033 58.4491 1.479 57.5498 1.479H53.2178V8.756H58.1768ZM69.3913 0.775999H70.1323L75.5663 14H74.8063L73.0203 9.63H66.5033L64.6983 14H63.9573L69.3913 0.775999ZM66.7883 8.946H72.7353L69.7523 1.688L66.7883 8.946Z" fill="black"/>
<path d="M0.798 0.756999V0.456999H0.329219L0.52559 0.882668L0.798 0.756999ZM13.262 0.756999L13.5344 0.882668L13.7308 0.456999H13.262V0.756999ZM7.03 14.266L6.75759 14.3917L7.03 14.9822L7.30241 14.3917L7.03 14.266ZM7.03 12.594L6.75753 12.7195L7.0295 13.3098L7.30229 12.7199L7.03 12.594ZM12.179 1.46L12.4513 1.58592L12.6483 1.16H12.179V1.46ZM1.9 1.46V1.16H1.43146L1.62753 1.58554L1.9 1.46ZM0.798 1.057H13.262V0.456999H0.798V1.057ZM12.9896 0.631331L6.75759 14.1403L7.30241 14.3917L13.5344 0.882668L12.9896 0.631331ZM7.30241 14.1403L1.07041 0.631331L0.52559 0.882668L6.75759 14.3917L7.30241 14.1403ZM7.30229 12.7199L12.4513 1.58592L11.9067 1.33408L6.75771 12.4681L7.30229 12.7199ZM12.179 1.16H1.9V1.76H12.179V1.16ZM1.62753 1.58554L6.75753 12.7195L7.30247 12.4685L2.17247 1.33446L1.62753 1.58554ZM19.2135 0.775999V0.475999H19.0124L18.936 0.661975L19.2135 0.775999ZM19.9545 0.775999L20.2319 0.661975L20.1555 0.475999H19.9545V0.775999ZM25.3885 14V14.3H25.8361L25.6659 13.886L25.3885 14ZM24.6285 14L24.3508 14.1135L24.427 14.3H24.6285V14ZM22.8425 9.63L23.1202 9.5165L23.0439 9.33H22.8425V9.63ZM16.3255 9.63V9.33H16.1248L16.0482 9.51547L16.3255 9.63ZM14.5205 14V14.3H14.7211L14.7977 14.1145L14.5205 14ZM13.7795 14L13.502 13.886L13.3318 14.3H13.7795V14ZM16.6105 8.946L16.3327 8.83258L16.1639 9.246H16.6105V8.946ZM22.5575 8.946V9.246H23.0051L22.8349 8.83196L22.5575 8.946ZM19.5745 1.688L19.8519 1.57396L19.5736 0.896661L19.2967 1.57458L19.5745 1.688ZM19.2135 1.076H19.9545V0.475999H19.2135V1.076ZM19.677 0.890024L25.111 14.114L25.6659 13.886L20.2319 0.661975L19.677 0.890024ZM25.3885 13.7H24.6285V14.3H25.3885V13.7ZM24.9062 13.8865L23.1202 9.5165L22.5648 9.7435L24.3508 14.1135L24.9062 13.8865ZM22.8425 9.33H16.3255V9.93H22.8425V9.33ZM16.0482 9.51547L14.2432 13.8855L14.7977 14.1145L16.6027 9.74453L16.0482 9.51547ZM14.5205 13.7H13.7795V14.3H14.5205V13.7ZM14.0569 14.114L19.4909 0.890024L18.936 0.661975L13.502 13.886L14.0569 14.114ZM16.6105 9.246H22.5575V8.646H16.6105V9.246ZM22.8349 8.83196L19.8519 1.57396L19.297 1.80204L22.28 9.06004L22.8349 8.83196ZM19.2967 1.57458L16.3327 8.83258L16.8882 9.05942L19.8522 1.80142L19.2967 1.57458ZM32.4039 7.673L32.4635 7.37897L32.4627 7.37883L32.4039 7.673ZM29.7629 6.97L29.6524 7.24898L29.6587 7.25132L29.7629 6.97ZM28.1669 5.906L27.9363 6.09814L27.9423 6.10491L28.1669 5.906ZM28.1669 2.22L27.9216 2.04719L27.919 2.051L28.1669 2.22ZM29.8009 0.928L29.6827 0.65225L29.6809 0.653038L29.8009 0.928ZM34.6839 1.042L34.546 1.30852L34.5516 1.31123L34.6839 1.042ZM36.4509 2.6L36.7034 2.43801L36.7034 2.43801L36.4509 2.6ZM37.0969 4.899V5.199H37.3969V4.899H37.0969ZM36.3939 4.899H36.0939V5.199H36.3939V4.899ZM35.8429 2.923L36.0951 2.76049L36.0951 2.76049L35.8429 2.923ZM34.3419 1.612L34.2077 1.88036L34.2121 1.88246L34.3419 1.612ZM30.3139 1.46L30.2119 1.17789L30.2119 1.17789L30.3139 1.46ZM28.8509 2.448L28.6231 2.25273L28.6199 2.25659L28.8509 2.448ZM28.8319 5.583L28.6161 5.79141L28.6198 5.79513L28.8319 5.583ZM30.2189 6.4L30.124 6.6846L30.124 6.6846L30.2189 6.4ZM32.6129 7.008L32.5513 7.3016L32.552 7.30175L32.6129 7.008ZM35.0259 7.635L34.9254 7.91776L34.9329 7.92022L35.0259 7.635ZM36.4889 8.604L36.2615 8.79978L36.2647 8.80331L36.4889 8.604ZM36.4319 12.613L36.1951 12.4288L36.1945 12.4296L36.4319 12.613ZM34.7029 13.867L34.8109 14.1469L34.8109 14.1469L34.7029 13.867ZM29.5729 13.696L29.4405 13.9652L29.5729 13.696ZM27.7299 12.043L27.4702 12.1933L27.4735 12.1987L27.7299 12.043ZM27.1029 9.573V9.273H26.8029V9.573H27.1029ZM27.8059 9.573H28.1059V9.273H27.8059V9.573ZM28.3379 11.701L28.0787 11.8522L28.0811 11.8561L28.3379 11.701ZM29.9149 13.126L29.7807 13.3944L29.7848 13.3963L29.9149 13.126ZM35.2349 12.784L35.0594 12.5407L35.0575 12.5421L35.2349 12.784ZM35.8999 8.984L35.6801 9.18814L35.6801 9.18814L35.8999 8.984ZM34.6459 8.224L34.551 8.50874L34.5597 8.51135L34.6459 8.224ZM32.4627 7.37883C31.3946 7.1652 30.531 6.93455 29.8671 6.68868L29.6587 7.25132C30.3628 7.51212 31.2599 7.75013 32.3451 7.96717L32.4627 7.37883ZM29.8734 6.6911C29.2364 6.43869 28.7468 6.10827 28.3915 5.70709L27.9423 6.10491C28.3723 6.59039 28.9468 6.96931 29.6524 7.2489L29.8734 6.6911ZM28.3974 5.71394C28.0707 5.3219 27.8969 4.81144 27.8969 4.158H27.2969C27.2969 4.92323 27.5031 5.5781 27.9364 6.09805L28.3974 5.71394ZM27.8969 4.158C27.8969 3.478 28.0718 2.89207 28.4148 2.389L27.919 2.051C27.502 2.6626 27.2969 3.36867 27.2969 4.158H27.8969ZM28.4122 2.39279C28.7697 1.88535 29.2686 1.4876 29.9209 1.20296L29.6809 0.653038C28.9399 0.9764 28.3495 1.43998 27.9217 2.04721L28.4122 2.39279ZM29.9191 1.20374C30.5844 0.918589 31.36 0.772 32.2519 0.772V0.172C31.2945 0.172 30.436 0.32941 29.6827 0.652256L29.9191 1.20374ZM32.2519 0.772C33.0942 0.772 33.8571 0.952071 34.5461 1.30846L34.8217 0.775534C34.0414 0.371928 33.183 0.172 32.2519 0.172V0.772ZM34.5516 1.31123C35.2521 1.65555 35.7986 2.13876 36.1984 2.76199L36.7034 2.43801C36.2419 1.71857 35.6104 1.16311 34.8162 0.772765L34.5516 1.31123ZM36.1984 2.76199C36.5956 3.38111 36.7969 4.09031 36.7969 4.899H37.3969C37.3969 3.98502 37.1676 3.16156 36.7034 2.43801L36.1984 2.76199ZM37.0969 4.599H36.3939V5.199H37.0969V4.599ZM36.6939 4.899C36.6939 4.10013 36.4968 3.38383 36.0951 2.76049L35.5907 3.08551C35.9237 3.60217 36.0939 4.2032 36.0939 4.899H36.6939ZM36.0951 2.76049C35.6966 2.14216 35.1531 1.66862 34.4717 1.34154L34.2121 1.88246C34.7973 2.16338 35.2545 2.56383 35.5907 3.08551L36.0951 2.76049ZM34.4761 1.34367C33.7974 1.00433 33.0478 0.836999 32.2329 0.836999V1.437C32.9633 1.437 33.6198 1.58634 34.2077 1.88033L34.4761 1.34367ZM32.2329 0.836999C31.5169 0.836999 30.8425 0.949801 30.2119 1.17789L30.4159 1.74211C30.976 1.53953 31.5809 1.437 32.2329 1.437V0.836999ZM30.2119 1.17789C29.572 1.40931 29.0396 1.76683 28.6231 2.25276L29.0787 2.64324C29.4222 2.24251 29.8651 1.94136 30.4159 1.74211L30.2119 1.17789ZM28.6199 2.25659C28.2008 2.76244 27.9999 3.39097 27.9999 4.12H28.5999C28.5999 3.50636 28.7664 3.02022 29.0819 2.6394L28.6199 2.25659ZM27.9999 4.12C27.9999 4.78992 28.1973 5.35768 28.6161 5.79138L29.0477 5.37462C28.7571 5.07365 28.5999 4.66608 28.5999 4.12H27.9999ZM28.6198 5.79513C29.0133 6.18863 29.5185 6.48276 30.124 6.6846L30.3138 6.11539C29.7793 5.93724 29.3599 5.6867 29.044 5.37087L28.6198 5.79513ZM30.124 6.6846C30.7101 6.87995 31.521 7.08537 32.5513 7.3016L32.6745 6.7144C31.6528 6.49996 30.8677 6.30005 30.3138 6.11539L30.124 6.6846ZM32.552 7.30175C33.5856 7.51604 34.3745 7.72177 34.9254 7.91766L35.1264 7.35234C34.5373 7.14289 33.7175 6.93063 32.6738 6.71425L32.552 7.30175ZM34.9329 7.92022C35.4645 8.09356 35.9054 8.38609 36.2616 8.79976L36.7162 8.40824C36.2871 7.90991 35.7527 7.55644 35.1189 7.34978L34.9329 7.92022ZM36.2647 8.80331C36.6063 9.18768 36.7969 9.74718 36.7969 10.523H37.3969C37.3969 9.65215 37.1821 8.93232 36.7131 8.40469L36.2647 8.80331ZM36.7969 10.523C36.7969 11.2894 36.5918 11.9187 36.1951 12.4288L36.6687 12.7972C37.1586 12.1673 37.3969 11.4032 37.3969 10.523H36.7969ZM36.1945 12.4296C35.8006 12.9393 35.271 13.3262 34.5949 13.5871L34.8109 14.1469C35.5788 13.8505 36.2019 13.4013 36.6693 12.7964L36.1945 12.4296ZM34.5949 13.5871C33.9105 13.8513 33.1622 13.985 32.3469 13.985V14.585C33.2289 14.585 34.0513 14.4401 34.8109 14.1469L34.5949 13.5871ZM32.3469 13.985C31.3332 13.985 30.4553 13.7958 29.7054 13.4268L29.4405 13.9652C30.2865 14.3815 31.258 14.585 32.3469 14.585V13.985ZM29.7054 13.4268C28.9548 13.0575 28.3852 12.5442 27.9863 11.8873L27.4735 12.1987C27.936 12.9604 28.595 13.5492 29.4405 13.9652L29.7054 13.4268ZM27.9895 11.8927C27.6008 11.2212 27.4029 10.4507 27.4029 9.573H26.8029C26.8029 10.5446 27.023 11.4208 27.4703 12.1933L27.9895 11.8927ZM27.1029 9.873H27.8059V9.273H27.1029V9.873ZM27.5059 9.573C27.5059 10.4286 27.6935 11.1917 28.0788 11.8522L28.597 11.5498C28.273 10.9943 28.1059 10.3387 28.1059 9.573H27.5059ZM28.0811 11.8561C28.4801 12.5164 29.05 13.029 29.7807 13.3943L30.0491 12.8577C29.4118 12.539 28.9304 12.1016 28.5947 11.5459L28.0811 11.8561ZM29.7848 13.3963C30.5178 13.7492 31.3749 13.92 32.3469 13.92V13.32C31.4443 13.32 30.6801 13.1614 30.0451 12.8557L29.7848 13.3963ZM32.3469 13.92C33.5607 13.92 34.5897 13.6291 35.4123 13.0259L35.0575 12.5421C34.3601 13.0535 33.4638 13.32 32.3469 13.32V13.92ZM35.4104 13.0273C36.2622 12.4129 36.6939 11.5619 36.6939 10.504H36.0939C36.0939 11.3715 35.7529 12.0404 35.0594 12.5407L35.4104 13.0273ZM36.6939 10.504C36.6939 9.79733 36.5168 9.20745 36.1197 8.77986L35.6801 9.18814C35.9417 9.46988 36.0939 9.89334 36.0939 10.504H36.6939ZM36.1197 8.77986C35.7507 8.38247 35.285 8.10253 34.7321 7.93665L34.5597 8.51135C35.0201 8.64947 35.3904 8.87619 35.6801 9.18814L36.1197 8.77986ZM34.7408 7.93939C34.2289 7.76877 33.467 7.58223 32.4635 7.37897L32.3444 7.96703C33.3421 8.16911 34.0749 8.3499 34.551 8.5086L34.7408 7.93939ZM50.0024 0.775999H50.3024V0.475999H50.0024V0.775999ZM50.0024 1.479V1.779H50.3024V1.479H50.0024ZM45.0054 1.479V1.179H44.7054V1.479H45.0054ZM45.0054 14V14.3H45.3054V14H45.0054ZM44.3214 14H44.0214V14.3H44.3214V14ZM44.3214 1.479H44.6214V1.179H44.3214V1.479ZM39.3244 1.479H39.0244V1.779H39.3244V1.479ZM39.3244 0.775999V0.475999H39.0244V0.775999H39.3244ZM49.7024 0.775999V1.479H50.3024V0.775999H49.7024ZM50.0024 1.179H45.0054V1.779H50.0024V1.179ZM44.7054 1.479V14H45.3054V1.479H44.7054ZM45.0054 13.7H44.3214V14.3H45.0054V13.7ZM44.6214 14V1.479H44.0214V14H44.6214ZM44.3214 1.179H39.3244V1.779H44.3214V1.179ZM39.6244 1.479V0.775999H39.0244V1.479H39.6244ZM39.3244 1.076H50.0024V0.475999H39.3244V1.076ZM60.0768 1.213L60.2037 0.941142L60.2025 0.940612L60.0768 1.213ZM61.8628 2.79L61.6076 2.94776L61.6097 2.95106L61.8628 2.79ZM61.6158 7.768L61.3786 7.58435L61.3782 7.5849L61.6158 7.768ZM59.3168 9.307L59.2385 9.01739L58.8211 9.13022L59.073 9.48174L59.3168 9.307ZM62.6798 14V14.3H63.2639L62.9237 13.8253L62.6798 14ZM61.8438 14L61.5995 14.1741L61.6892 14.3H61.8438V14ZM58.5948 9.44L58.8391 9.26592L58.746 9.13513L58.5854 9.14015L58.5948 9.44ZM57.9868 9.459V9.75915L57.9962 9.75885L57.9868 9.459ZM53.2178 9.459V9.159H52.9178V9.459H53.2178ZM53.2178 14V14.3H53.5178V14H53.2178ZM52.5148 14H52.2148V14.3H52.5148V14ZM52.5148 0.775999V0.475999H52.2148V0.775999H52.5148ZM58.9748 0.889999L58.9178 1.18473L58.9285 1.1864L58.9748 0.889999ZM60.0008 8.262L59.8482 8.00372L59.8482 8.00372L60.0008 8.262ZM61.3308 6.932L61.0725 6.77938L61.0725 6.77938L61.3308 6.932ZM61.2358 3.113L60.9829 3.27443L60.9854 3.27818L61.2358 3.113ZM59.6398 1.783L59.7574 1.50697L59.7537 1.50545L59.6398 1.783ZM53.2178 1.479V1.179H52.9178V1.479H53.2178ZM53.2178 8.756H52.9178V9.056H53.2178V8.756ZM59.9499 1.48485C60.6583 1.81543 61.2085 2.30205 61.6076 2.94775L62.118 2.63225C61.6558 1.88461 61.0153 1.3199 60.2037 0.941144L59.9499 1.48485ZM61.6097 2.95106C62.0215 3.5982 62.2278 4.31472 62.2278 5.108H62.8278C62.8278 4.20395 62.5908 3.37513 62.1159 2.62894L61.6097 2.95106ZM62.2278 5.108C62.2278 6.02914 61.9461 6.85128 61.3786 7.58435L61.853 7.95165C62.5015 7.11405 62.8278 6.16286 62.8278 5.108H62.2278ZM61.3782 7.5849C60.8227 8.30585 60.1122 8.78126 59.2385 9.01739L59.3951 9.59661C60.3961 9.32607 61.2183 8.77549 61.8535 7.9511L61.3782 7.5849ZM59.073 9.48174L62.436 14.1747L62.9237 13.8253L59.5607 9.13226L59.073 9.48174ZM62.6798 13.7H61.8438V14.3H62.6798V13.7ZM62.0881 13.8259L58.8391 9.26592L58.3505 9.61408L61.5995 14.1741L62.0881 13.8259ZM58.5854 9.14015L57.9774 9.15915L57.9962 9.75885L58.6042 9.73985L58.5854 9.14015ZM57.9868 9.159H53.2178V9.759H57.9868V9.159ZM52.9178 9.459V14H53.5178V9.459H52.9178ZM53.2178 13.7H52.5148V14.3H53.2178V13.7ZM52.8148 14V0.775999H52.2148V14H52.8148ZM52.5148 1.076H57.5498V0.475999H52.5148V1.076ZM57.5498 1.076C58.0949 1.076 58.5496 1.11327 58.9178 1.18453L59.0318 0.595465C58.6147 0.514725 58.1194 0.475999 57.5498 0.475999V1.076ZM58.9285 1.1864C59.3099 1.246 59.65 1.34644 59.9511 1.48539L60.2025 0.940612C59.8449 0.775559 59.4504 0.660666 59.0211 0.593595L58.9285 1.1864ZM58.1768 9.056C58.8882 9.056 59.549 8.87742 60.1534 8.52028L59.8482 8.00372C59.3379 8.30524 58.7828 8.456 58.1768 8.456V9.056ZM60.1534 8.52028C60.7543 8.1652 61.234 7.68552 61.5891 7.08462L61.0725 6.77938C60.7689 7.29315 60.362 7.70013 59.8482 8.00372L60.1534 8.52028ZM61.5891 7.08462C61.9462 6.48022 62.1248 5.81937 62.1248 5.108H61.5248C61.5248 5.71396 61.3741 6.26911 61.0725 6.77938L61.5891 7.08462ZM62.1248 5.108C62.1248 4.31648 61.9123 3.59372 61.4862 2.94782L60.9854 3.27818C61.3447 3.82295 61.5248 4.43018 61.5248 5.108H62.1248ZM61.4887 2.95159C61.0744 2.30253 60.4939 1.8207 59.7574 1.50699L59.5223 2.05901C60.1537 2.32797 60.6372 2.7328 60.9829 3.27441L61.4887 2.95159ZM59.7537 1.50545C59.207 1.28118 58.4651 1.179 57.5498 1.179V1.779C58.4332 1.779 59.0846 1.87949 59.5259 2.06055L59.7537 1.50545ZM57.5498 1.179H53.2178V1.779H57.5498V1.179ZM52.9178 1.479V8.756H53.5178V1.479H52.9178ZM53.2178 9.056H58.1768V8.456H53.2178V9.056ZM69.3913 0.775999V0.475999H69.1902L69.1138 0.661975L69.3913 0.775999ZM70.1323 0.775999L70.4098 0.661975L70.3333 0.475999H70.1323V0.775999ZM75.5663 14V14.3H76.0139L75.8438 13.886L75.5663 14ZM74.8063 14L74.5286 14.1135L74.6048 14.3H74.8063V14ZM73.0203 9.63L73.298 9.5165L73.2217 9.33H73.0203V9.63ZM66.5033 9.63V9.33H66.3026L66.226 9.51547L66.5033 9.63ZM64.6983 14V14.3H64.8989L64.9755 14.1145L64.6983 14ZM63.9573 14L63.6798 13.886L63.5097 14.3H63.9573V14ZM66.7883 8.946L66.5105 8.83258L66.3417 9.246H66.7883V8.946ZM72.7353 8.946V9.246H73.1829L73.0127 8.83196L72.7353 8.946ZM69.7523 1.688L70.0297 1.57396L69.7514 0.896661L69.4745 1.57458L69.7523 1.688ZM69.3913 1.076H70.1323V0.475999H69.3913V1.076ZM69.8548 0.890024L75.2888 14.114L75.8438 13.886L70.4098 0.661975L69.8548 0.890024ZM75.5663 13.7H74.8063V14.3H75.5663V13.7ZM75.084 13.8865L73.298 9.5165L72.7426 9.7435L74.5286 14.1135L75.084 13.8865ZM73.0203 9.33H66.5033V9.93H73.0203V9.33ZM66.226 9.51547L64.421 13.8855L64.9755 14.1145L66.7805 9.74453L66.226 9.51547ZM64.6983 13.7H63.9573V14.3H64.6983V13.7ZM64.2348 14.114L69.6688 0.890024L69.1138 0.661975L63.6798 13.886L64.2348 14.114ZM66.7883 9.246H72.7353V8.646H66.7883V9.246ZM73.0127 8.83196L70.0297 1.57396L69.4748 1.80204L72.4578 9.06004L73.0127 8.83196ZM69.4745 1.57458L66.5105 8.83258L67.066 9.05942L70.03 1.80142L69.4745 1.57458Z" fill="black" mask="url(#path-1-outside-1_1_2)"/>
</svg>
